<svg width="185" height="60" viewBox="0 0 185 60" fill="none" xmlns="http://www.w3.org/2000/svg">
  <mask id="mask0_1202_1911" style="mask-type:alpha" maskUnits="userSpaceOnUse" x="0" y="0" width="145" height="60">
  <rect width="144.601" height="60" fill="#D9D9D9"/>
  </mask>
  <g mask="url(#mask0_1202_1911)">
  <path fill-rule="evenodd" clip-rule="evenodd" d="M-9.50438 -22.5956C-10.9951 -19.6981 -11.2959 -18.1158 -13.0611 -17.6244C-13.7999 -17.4185 -16.491 -16.8303 -17.6301 -16.3899C-18.9718 -15.8633 -18.4551 -13.9512 -16.8925 -14.5689C-15.1475 -15.2813 -12.6614 -17.186 -11.9564 -16.4181C-11.025 -15.4368 -12.9849 -13.1766 -13.9414 -11.2838C-14.898 -9.3909 -13.3944 -8.47895 -12.2128 -10.4743C-11.0312 -12.4696 -11.2665 -15.4523 -10.0452 -15.4446C-8.82395 -15.4369 -9.82626 -11.9941 -9.63111 -10.317C-9.46067 -8.85222 -7.55573 -9.19646 -7.72822 -10.5384C-7.94612 -12.2238 -9.06306 -14.9868 -8.227 -15.223C-7.39095 -15.4593 -6.32559 -13.5374 -4.84175 -12.5142C-4.24823 -12.0957 -2.85049 -12.8658 -3.69564 -13.9252C-4.5408 -14.9846 -7.98129 -15.8973 -8.0168 -17.5603C-8.04036 -18.4183 -6.90342 -20.3295 -5.55173 -20.9335C-4.20003 -21.5375 5.53158 0.67487 6.04912 1.42371C6.66875 2.32411 6.83255 4.41077 11.7696 8.67974C15.3852 11.8003 30.3871 18.6384 20.3624 26.013C17.6738 28.0039 14.676 23.3568 12.7828 22.3975C10.8896 21.4383 10.3112 23.6549 11.8939 24.4269C13.4765 25.1989 16.8415 26.4227 16.5072 27.366C16.173 28.3093 12.3733 28.1957 10.2879 27.9726C8.2907 27.7582 8.80416 29.9704 9.82954 29.7693C11.4113 29.4572 15.963 28.4482 16.4138 29.5834C16.8647 30.7187 14.427 33.0399 13.7219 34.3315C13.0168 35.623 14.8847 36.7159 15.5274 35.3799C15.9655 34.4627 17.1572 30.1425 18.4301 30.3131C19.7031 30.4837 18.8222 33.4247 18.6573 35.2854C18.5503 36.4964 20.478 36.5582 20.4822 35.073C20.4865 33.5879 20.2937 30.8073 20.8878 29.7084C22.3212 27.0682 22.9494 29.049 25.5539 25.9374C28.3238 22.6323 32.3253 36.4899 27.9942 36.8659C25.9766 37.038 22.7738 37.8874 20.7804 39.7429C18.1577 42.2055 18.6559 44.0054 17.0382 46.4437C16.5244 47.2254 15.2024 49.6538 15.5705 50.6162C16.1645 52.1625 17.4561 52.7749 18.8255 52.4167C22.5292 51.4709 26.6253 52.2583 29.6328 50.6443C33.3293 48.6533 34.9719 45.0244 36.1277 42.3619C36.9402 40.4722 38.7358 39.0238 41.31 35.1612C41.8503 34.3492 46.3468 39.7019 42.5889 42.6398C41.6448 43.3762 40.9965 44.6639 39.4115 46.2594C37.8265 47.8549 39.8456 49.0773 41.3463 47.459C42.8469 45.8406 42.6309 43.0245 43.9187 43.3459C45.2064 43.6673 43.7509 47.2418 43.7785 48.2983C43.8061 49.3547 45.8726 49.5801 45.8766 48.3266C45.8884 47.8893 45.2162 43.3066 45.9471 43.0091C47.2471 42.4765 47.8946 45.7 48.5671 47.5232C49.2396 49.3463 51.4738 48.5306 50.4183 46.2018C49.3628 43.8729 47.3 43.1649 48.3745 42.2853C49.2201 41.5931 52.0912 44.3781 52.6765 45.2879C54.5061 46.9656 56.2645 45.5024 54.5228 43.6675C53.0698 42.1367 49.6353 40.6431 47.9319 40.3319C46.2286 40.0207 46.1081 39.43 46.3645 38.1688C47.8424 30.7127 43.3045 32.0279 43.4164 30.1571C43.5759 27.4308 44.2449 21.0058 39.151 13.9139C31.1385 2.76209 20.049 -4.0953 20.3044 -4.68618C20.6667 -5.52922 21.6185 -5.96415 22.4748 -6.09648C24.8838 -6.46395 24.7676 -2.92001 28.0661 -0.184728C28.6447 0.292768 29.3497 -0.718187 28.9299 -1.23595C27.778 -2.6601 25.457 -4.06535 26.4627 -4.90425C27.4683 -5.74315 29.4216 -4.66559 31.3394 -2.97916C31.9161 -2.47147 32.8865 -3.54326 31.9866 -4.20675C29.7249 -5.87496 26.5589 -5.99691 27.3057 -6.9773C28.0524 -7.9577 31.4718 -6.89819 32.564 -6.26797C34.0267 -5.40302 35.2358 -6.92755 33.7709 -7.60155C31.8114 -8.4986 28.1644 -7.67381 28.0983 -8.89741C28.0444 -9.89905 30.3411 -9.85029 32.7955 -9.68641C33.4597 -9.64383 34.1798 -10.8064 32.8192 -11.0512C29.821 -11.604 28.4125 -10.2007 27.3284 -10.317C25.3165 -10.5405 25.0979 -10.7575 23.0033 -10.334C20.9087 -9.91049 18.0677 -7.12278 17.4101 -7.97518C16.5145 -9.14039 16.4031 -9.30177 15.7178 -12.194C12.1872 -26.9918 25.6216 -51.8379 54.3639 -55.1823C75.328 -57.6216 96.9401 -39.8617 100.291 -20.946C102.099 -10.7204 100.394 -13.7161 100.291 -1.23594C97.0806 34.6051 107 56.9203 121.876 55.1893C125.214 54.8009 128.325 52.532 128.179 51.2742C128.172 51.2151 125.278 53.712 121.733 54.1245C97.2907 55.1893 109.5 -4.20675 108.024 -8.86823C108.536 -47.0515 77.3933 -66.5137 53.4459 -63.7272C14.1759 -59.1578 -5.73566 -31.5422 3.06232 -3.22202C3.06232 -3.22202 -7.695 -26.1023 -9.50438 -22.5956Z" fill="#242E3A"/>
  </g>
  <path d="M57.8047 36.2375C57.0625 36.2375 56.4287 36.1416 55.9034 35.9498C55.378 35.7664 54.9527 35.5829 54.6275 35.3994C54.3023 35.216 54.0729 35.1242 53.9395 35.1242C53.7978 35.1242 53.6852 35.1826 53.6018 35.2994C53.5267 35.4078 53.4517 35.537 53.3766 35.6871C53.3099 35.8372 53.2349 35.9665 53.1515 36.0749C53.0681 36.1916 52.9555 36.25 52.8137 36.25C52.6803 36.25 52.5719 36.2083 52.4885 36.1249C52.4051 36.0415 52.3426 35.9081 52.3009 35.7247L51.3753 31.6969C51.3419 31.5551 51.3544 31.43 51.4128 31.3216C51.4795 31.2132 51.5837 31.1382 51.7255 31.0965C51.8756 31.0381 52.0049 31.0423 52.1133 31.109C52.23 31.1674 52.3301 31.2799 52.4135 31.4467C52.8638 32.3724 53.3683 33.1145 53.927 33.6733C54.4941 34.2236 55.0903 34.6239 55.7157 34.8741C56.3495 35.1242 56.9916 35.2493 57.6421 35.2493C58.5844 35.2493 59.3182 34.9992 59.8436 34.4988C60.3689 33.9901 60.6358 33.323 60.6441 32.4974C60.6441 31.9804 60.5274 31.5009 60.2939 31.059C60.0604 30.617 59.6184 30.1917 58.968 29.7831C58.3259 29.3745 57.3877 28.9575 56.1535 28.5322C54.9027 28.1069 53.902 27.6274 53.1515 27.0937C52.401 26.5517 51.8548 25.9388 51.5129 25.255C51.171 24.5628 51 23.7748 51 22.8909C51 21.9152 51.2293 21.0604 51.688 20.3266C52.1466 19.5928 52.7887 19.0257 53.6143 18.6254C54.4399 18.2168 55.3905 18.0125 56.4662 18.0125C57.2585 18.0125 57.9006 18.1001 58.3926 18.2752C58.8929 18.4503 59.2932 18.6254 59.5934 18.8005C59.9019 18.9757 60.1479 19.0632 60.3314 19.0632C60.5065 19.0632 60.6274 18.9757 60.6941 18.8005C60.7692 18.6254 60.8443 18.4503 60.9193 18.2752C61.0027 18.0917 61.1445 18 61.3446 18C61.4864 18 61.5989 18.0459 61.6823 18.1376C61.7741 18.221 61.8533 18.3753 61.92 18.6004L63.1458 22.7408C63.1875 22.9075 63.1792 23.0576 63.1208 23.1911C63.0708 23.3245 62.9707 23.412 62.8206 23.4537C62.6705 23.5038 62.5371 23.4996 62.4203 23.4412C62.3036 23.3829 62.2035 23.2745 62.1201 23.116C61.6198 22.0903 61.0777 21.2772 60.494 20.6768C59.9103 20.0764 59.3015 19.647 58.6678 19.3885C58.034 19.1216 57.3794 18.9882 56.7039 18.9882C55.7449 18.9882 54.9777 19.2634 54.4023 19.8137C53.8353 20.3641 53.5518 21.0938 53.5518 22.0027C53.5518 22.5281 53.6685 23.0243 53.902 23.4913C54.1438 23.9499 54.5816 24.3919 55.2154 24.8172C55.8492 25.2425 56.7498 25.6719 57.9172 26.1056C59.2181 26.5809 60.2438 27.0854 60.9944 27.6191C61.7532 28.1528 62.2952 28.7449 62.6205 29.3953C62.954 30.0374 63.1166 30.7671 63.1083 31.5843C63.1 32.4349 62.8873 33.2146 62.4704 33.9234C62.0618 34.6239 61.4655 35.1868 60.6816 35.6121C59.8978 36.029 58.9388 36.2375 57.8047 36.2375Z" fill="#242E3A"/>
  <path d="M73.0374 34.3362V34.0985L72.8873 34.036V26.8686C72.8873 26.1431 72.708 25.5885 72.3494 25.2049C71.9908 24.813 71.4821 24.617 70.8234 24.617C70.1896 24.617 69.7143 24.7505 69.3974 25.0173C69.0805 25.2842 68.9221 25.601 68.9221 25.968V26.9311C68.9221 27.3314 68.7886 27.6399 68.5218 27.8568C68.2633 28.0736 67.9047 28.182 67.446 28.182C67.0541 28.182 66.7497 28.0777 66.5329 27.8693C66.3244 27.6608 66.2202 27.3814 66.2202 27.0312C66.2202 26.5225 66.4162 26.0305 66.8081 25.5552C67.2084 25.0715 67.7838 24.6754 68.5343 24.3669C69.2931 24.0583 70.2146 23.904 71.2987 23.904C72.708 23.904 73.7545 24.2084 74.4383 24.8172C75.1221 25.4259 75.464 26.239 75.464 27.2563V34.0235C75.464 34.2903 75.5182 34.4905 75.6267 34.6239C75.7351 34.749 75.8768 34.8115 76.0519 34.8115C76.2521 34.8115 76.398 34.7657 76.4897 34.6739C76.5898 34.5739 76.669 34.4738 76.7274 34.3737C76.7691 34.3237 76.8108 34.282 76.8525 34.2486C76.8942 34.2069 76.9484 34.1861 77.0151 34.1861C77.0902 34.1861 77.1485 34.2195 77.1902 34.2862C77.2319 34.3445 77.2528 34.4238 77.2528 34.5238C77.2528 34.7573 77.1694 34.9992 77.0026 35.2493C76.8442 35.4912 76.6065 35.6996 76.2896 35.8748C75.9811 36.0499 75.5933 36.1374 75.1263 36.1374C74.4675 36.1374 73.9547 35.9832 73.5878 35.6746C73.2208 35.3661 73.0374 34.9199 73.0374 34.3362ZM65.6573 33.2605C65.6573 32.2848 66.0909 31.4842 66.9582 30.8588C67.8338 30.2334 69.0513 29.9207 70.6107 29.9207C71.1778 29.9207 71.6948 29.9749 72.1618 30.0833C72.6288 30.1834 73.0457 30.3126 73.4126 30.4711L73.2125 31.1215C72.8706 30.9714 72.5162 30.8505 72.1493 30.7588C71.7907 30.667 71.3988 30.6212 70.9735 30.6212C70.1479 30.6212 69.5016 30.8213 69.0346 31.2216C68.576 31.6135 68.3467 32.1514 68.3467 32.8352C68.3467 33.5106 68.5343 34.0318 68.9095 34.3987C69.2931 34.7573 69.7851 34.9366 70.3856 34.9366C70.9276 34.9366 71.453 34.8115 71.9616 34.5614C72.4703 34.3112 72.9081 33.9568 73.275 33.4981L73.5252 34.0485C73.0415 34.7156 72.4161 35.2327 71.6489 35.5996C70.8817 35.9582 70.0645 36.1374 69.1972 36.1374C68.1549 36.1374 67.3043 35.8789 66.6455 35.3619C65.9867 34.8365 65.6573 34.1361 65.6573 33.2605Z" fill="#242E3A"/>
  <path d="M82.9981 24.6045V34.1986C82.9981 34.4154 83.0398 34.578 83.1232 34.6864C83.2066 34.7949 83.3275 34.8699 83.486 34.9116L84.0613 35.0492C84.3115 35.1242 84.4366 35.2535 84.4366 35.437C84.4366 35.7121 84.2531 35.8497 83.8862 35.8497H79.4207C79.2372 35.8497 79.0996 35.8164 79.0079 35.7497C78.9245 35.6746 78.8828 35.5787 78.8828 35.462C78.8828 35.3619 78.9162 35.2785 78.9829 35.2118C79.0496 35.1451 79.1538 35.0909 79.2956 35.0492L79.9085 34.9116C80.0669 34.8699 80.1879 34.7949 80.2712 34.6864C80.3546 34.578 80.3963 34.4196 80.3963 34.2111V26.3432C80.3963 26.1598 80.363 26.0305 80.2963 25.9555C80.2379 25.8721 80.142 25.822 80.0086 25.8054L79.1455 25.7678C79.0121 25.7511 78.9162 25.7136 78.8578 25.6553C78.7994 25.5969 78.7702 25.5218 78.7702 25.4301C78.7702 25.33 78.8036 25.2466 78.8703 25.1799C78.937 25.1132 79.0579 25.0465 79.233 24.9798L81.372 24.2418C81.6222 24.1501 81.8223 24.0875 81.9724 24.0542C82.1309 24.0125 82.2726 23.9916 82.3977 23.9916C82.5978 23.9916 82.7479 24.0458 82.848 24.1542C82.9481 24.2626 82.9981 24.4127 82.9981 24.6045ZM82.6479 27.2438L82.1976 26.7685L82.7229 26.3057C83.7153 25.4134 84.5784 24.7922 85.3122 24.4419C86.046 24.0833 86.7507 23.904 87.4262 23.904C88.4685 23.904 89.3024 24.2293 89.9279 24.8797C90.5616 25.5302 90.8785 26.4224 90.8785 27.5566V34.1486C90.8785 34.3821 90.9244 34.5572 91.0161 34.6739C91.1078 34.7907 91.2413 34.8741 91.4164 34.9241L91.9292 35.0492C92.1711 35.1326 92.292 35.2618 92.292 35.437C92.292 35.7121 92.1127 35.8497 91.7541 35.8497H87.3511C86.9842 35.8497 86.8007 35.7121 86.8007 35.437C86.8007 35.2535 86.9216 35.1242 87.1635 35.0492L87.7639 34.9116C87.939 34.8699 88.0683 34.7907 88.1517 34.6739C88.235 34.5489 88.2767 34.3696 88.2767 34.1361V27.9568C88.2767 27.1229 88.0724 26.4975 87.6638 26.0805C87.2635 25.6636 86.7215 25.4551 86.0377 25.4551C85.6208 25.4551 85.1746 25.5635 84.6993 25.7803C84.2323 25.9888 83.7278 26.3224 83.1857 26.781L82.6479 27.2438ZM90.5283 27.2438L90.0655 26.7685L90.5908 26.3057C91.5498 25.4384 92.3754 24.8213 93.0675 24.4544C93.7597 24.0875 94.431 23.904 95.0814 23.904C96.0738 23.904 96.8409 24.2334 97.383 24.8922C97.9334 25.5427 98.2753 26.4308 98.4087 27.5566L99.1842 34.1486C99.2092 34.3821 99.2593 34.5614 99.3343 34.6864C99.4177 34.8032 99.5428 34.8824 99.7096 34.9241L100.247 35.0492C100.381 35.0909 100.481 35.1451 100.548 35.2118C100.614 35.2785 100.648 35.3619 100.648 35.462C100.648 35.5787 100.606 35.6746 100.523 35.7497C100.439 35.8164 100.306 35.8497 100.122 35.8497H95.6193C95.2524 35.8497 95.0689 35.7121 95.0689 35.437C95.0689 35.2535 95.194 35.1242 95.4442 35.0492L96.0321 34.9116C96.2155 34.8699 96.3531 34.7907 96.4448 34.6739C96.5366 34.5489 96.5699 34.3696 96.5449 34.1361L95.7944 27.9568C95.6943 27.1229 95.4775 26.4975 95.144 26.0805C94.8187 25.6636 94.3392 25.4551 93.7055 25.4551C93.3219 25.4551 92.9133 25.5677 92.4796 25.7928C92.046 26.0097 91.5707 26.3391 91.0536 26.781L90.5283 27.2438Z" fill="#242E3A"/>
  <path d="M123.15 23.904C124.367 23.904 125.439 24.1667 126.364 24.6921C127.298 25.2091 128.024 25.9304 128.541 26.8561C129.066 27.7734 129.329 28.8366 129.329 30.0458C129.329 31.2132 129.062 32.2556 128.528 33.1729C127.995 34.0902 127.257 34.8157 126.314 35.3494C125.38 35.8748 124.296 36.1374 123.062 36.1374C121.853 36.1374 120.786 35.8789 119.86 35.3619C118.934 34.8365 118.209 34.111 117.683 33.1854C117.158 32.2598 116.895 31.2007 116.895 30.0082C116.895 28.8241 117.158 27.7734 117.683 26.8561C118.217 25.9388 118.951 25.2175 119.885 24.6921C120.827 24.1667 121.916 23.904 123.15 23.904ZM124.013 35.1242C124.705 35.0242 125.268 34.7407 125.701 34.2737C126.135 33.8067 126.427 33.1729 126.577 32.3724C126.727 31.5718 126.71 30.6295 126.527 29.5454C126.352 28.4447 126.06 27.5357 125.651 26.8185C125.243 26.0931 124.742 25.5719 124.15 25.255C123.567 24.9298 122.92 24.8172 122.212 24.9172C121.519 25.0173 120.952 25.305 120.51 25.7803C120.077 26.2473 119.789 26.8811 119.647 27.6816C119.506 28.4739 119.522 29.412 119.697 30.4961C119.872 31.5885 120.164 32.4974 120.573 33.2229C120.99 33.9401 121.49 34.4613 122.074 34.7865C122.658 35.1117 123.304 35.2243 124.013 35.1242Z" fill="#242E3A"/>
  <path d="M137.588 23.904C138.806 23.904 139.877 24.1667 140.803 24.6921C141.737 25.2091 142.462 25.9304 142.979 26.8561C143.505 27.7734 143.768 28.8366 143.768 30.0458C143.768 31.2132 143.501 32.2556 142.967 33.1729C142.433 34.0902 141.695 34.8157 140.753 35.3494C139.819 35.8748 138.735 36.1374 137.501 36.1374C136.292 36.1374 135.224 35.8789 134.299 35.3619C133.373 34.8365 132.647 34.111 132.122 33.1854C131.597 32.2598 131.334 31.2007 131.334 30.0082C131.334 28.8241 131.597 27.7734 132.122 26.8561C132.656 25.9388 133.39 25.2175 134.324 24.6921C135.266 24.1667 136.354 23.904 137.588 23.904ZM138.451 35.1242C139.144 35.0242 139.706 34.7407 140.14 34.2737C140.574 33.8067 140.866 33.1729 141.016 32.3724C141.166 31.5718 141.149 30.6295 140.966 29.5454C140.79 28.4447 140.499 27.5357 140.09 26.8185C139.681 26.0931 139.181 25.5719 138.589 25.255C138.005 24.9298 137.359 24.8172 136.65 24.9172C135.958 25.0173 135.391 25.305 134.949 25.7803C134.515 26.2473 134.228 26.8811 134.086 27.6816C133.944 28.4739 133.961 29.412 134.136 30.4961C134.311 31.5885 134.603 32.4974 135.012 33.2229C135.428 33.9401 135.929 34.4613 136.513 34.7865C137.096 35.1117 137.743 35.2243 138.451 35.1242Z" fill="#242E3A"/>
  <path d="M149.55 29.3578C149.55 28.1736 149.721 27.1771 150.063 26.3682C150.413 25.5594 150.868 24.9464 151.426 24.5295C151.985 24.1125 152.577 23.904 153.203 23.904C153.945 23.904 154.52 24.1084 154.929 24.517C155.338 24.9256 155.542 25.4968 155.542 26.2306C155.542 26.7977 155.421 27.2272 155.179 27.519C154.937 27.8109 154.625 27.9568 154.241 27.9568C153.849 27.9568 153.545 27.8484 153.328 27.6316C153.119 27.4148 153.015 27.1104 153.015 26.7185V26.2932C153.015 26.0097 152.948 25.8012 152.815 25.6678C152.682 25.526 152.465 25.4551 152.165 25.4551C151.806 25.4551 151.456 25.601 151.114 25.8929C150.78 26.1764 150.505 26.6059 150.288 27.1813C150.071 27.7567 149.963 28.4822 149.963 29.3578H149.55ZM149.838 24.617L149.963 27.6316V34.1861C149.963 34.3946 150.009 34.553 150.101 34.6614C150.201 34.7615 150.363 34.8282 150.588 34.8616L151.714 35.0242C151.881 35.0492 152.002 35.0951 152.077 35.1618C152.16 35.2285 152.202 35.3244 152.202 35.4495C152.202 35.5746 152.156 35.6746 152.064 35.7497C151.973 35.8164 151.839 35.8497 151.664 35.8497H146.386C146.202 35.8497 146.064 35.8164 145.973 35.7497C145.889 35.6746 145.848 35.5787 145.848 35.462C145.848 35.3619 145.881 35.2785 145.948 35.2118C146.023 35.1368 146.127 35.0826 146.26 35.0492L146.873 34.9116C147.032 34.8699 147.153 34.7949 147.236 34.6864C147.32 34.578 147.361 34.4196 147.361 34.2111V26.3557C147.361 26.1723 147.328 26.043 147.261 25.968C147.203 25.8846 147.107 25.8345 146.973 25.8179L146.11 25.7803C145.977 25.7637 145.881 25.7261 145.823 25.6678C145.764 25.6094 145.735 25.5343 145.735 25.4426C145.735 25.3425 145.768 25.2591 145.835 25.1924C145.902 25.1257 146.023 25.0632 146.198 25.0048L148.299 24.2793C148.608 24.1626 148.837 24.0875 148.987 24.0542C149.146 24.0125 149.271 23.9916 149.363 23.9916C149.513 23.9916 149.621 24.0416 149.688 24.1417C149.763 24.2334 149.813 24.3919 149.838 24.617Z" fill="#242E3A"/>
  <path d="M161.128 24.6045V34.1986C161.128 34.4154 161.17 34.578 161.253 34.6864C161.336 34.7949 161.457 34.8699 161.616 34.9116L162.191 35.0492C162.441 35.1242 162.566 35.2535 162.566 35.437C162.566 35.7121 162.383 35.8497 162.016 35.8497H157.55C157.367 35.8497 157.229 35.8164 157.138 35.7497C157.054 35.6746 157.013 35.5787 157.013 35.462C157.013 35.3619 157.046 35.2785 157.113 35.2118C157.179 35.1451 157.284 35.0909 157.425 35.0492L158.038 34.9116C158.197 34.8699 158.318 34.7949 158.401 34.6864C158.484 34.578 158.526 34.4154 158.526 34.1986V26.3307C158.526 26.1556 158.493 26.0305 158.426 25.9555C158.368 25.8721 158.268 25.822 158.126 25.8054L157.275 25.7678C157.142 25.7511 157.046 25.7136 156.988 25.6553C156.929 25.5969 156.9 25.5218 156.9 25.4301C156.9 25.33 156.933 25.2466 157 25.1799C157.067 25.1132 157.188 25.0465 157.363 24.9798L159.502 24.2418C159.752 24.1501 159.952 24.0875 160.102 24.0542C160.261 24.0125 160.402 23.9916 160.527 23.9916C160.728 23.9916 160.878 24.0458 160.978 24.1542C161.078 24.2626 161.128 24.4127 161.128 24.6045ZM160.79 27.2438L160.327 26.7685L160.865 26.3057C161.833 25.4384 162.666 24.8213 163.367 24.4544C164.076 24.0875 164.755 23.904 165.406 23.904C166.39 23.904 167.153 24.2334 167.695 24.8922C168.245 25.5427 168.583 26.4266 168.708 27.544L169.484 34.1486C169.509 34.3821 169.559 34.5572 169.634 34.6739C169.717 34.7907 169.846 34.8741 170.021 34.9241L170.559 35.0492C170.693 35.0909 170.793 35.1451 170.86 35.2118C170.926 35.2785 170.96 35.3619 170.96 35.462C170.96 35.5787 170.918 35.6746 170.835 35.7497C170.751 35.8164 170.618 35.8497 170.434 35.8497H165.919C165.552 35.8497 165.368 35.7121 165.368 35.437C165.368 35.2535 165.493 35.1242 165.744 35.0492L166.344 34.9116C166.519 34.8699 166.653 34.7907 166.744 34.6739C166.844 34.5489 166.878 34.3737 166.844 34.1486L166.106 27.9443C166.006 27.1104 165.789 26.4892 165.456 26.0805C165.131 25.6636 164.655 25.4551 164.03 25.4551C163.63 25.4551 163.208 25.5677 162.767 25.7928C162.325 26.0097 161.841 26.3391 161.316 26.781L160.79 27.2438Z" fill="#242E3A"/>
  <path d="M179.8 34.3362V34.0985L179.65 34.036V26.8686C179.65 26.1431 179.471 25.5885 179.112 25.2049C178.753 24.813 178.245 24.617 177.586 24.617C176.952 24.617 176.477 24.7505 176.16 25.0173C175.843 25.2842 175.685 25.601 175.685 25.968V26.9311C175.685 27.3314 175.551 27.6399 175.284 27.8568C175.026 28.0736 174.667 28.182 174.209 28.182C173.817 28.182 173.512 28.0777 173.296 27.8693C173.087 27.6608 172.983 27.3814 172.983 27.0312C172.983 26.5225 173.179 26.0305 173.571 25.5552C173.971 25.0715 174.546 24.6754 175.297 24.3669C176.056 24.0583 176.977 23.904 178.061 23.904C179.471 23.904 180.517 24.2084 181.201 24.8172C181.885 25.4259 182.227 26.239 182.227 27.2563V34.0235C182.227 34.2903 182.281 34.4905 182.389 34.6239C182.498 34.749 182.639 34.8115 182.815 34.8115C183.015 34.8115 183.161 34.7657 183.252 34.6739C183.352 34.5739 183.432 34.4738 183.49 34.3737C183.532 34.3237 183.573 34.282 183.615 34.2486C183.657 34.2069 183.711 34.1861 183.778 34.1861C183.853 34.1861 183.911 34.2195 183.953 34.2862C183.995 34.3445 184.015 34.4238 184.015 34.5238C184.015 34.7573 183.932 34.9992 183.765 35.2493C183.607 35.4912 183.369 35.6996 183.052 35.8748C182.744 36.0499 182.356 36.1374 181.889 36.1374C181.23 36.1374 180.717 35.9832 180.35 35.6746C179.984 35.3661 179.8 34.9199 179.8 34.3362ZM172.42 33.2605C172.42 32.2848 172.854 31.4842 173.721 30.8588C174.596 30.2334 175.814 29.9207 177.373 29.9207C177.94 29.9207 178.457 29.9749 178.924 30.0833C179.391 30.1834 179.808 30.3126 180.175 30.4711L179.975 31.1215C179.633 30.9714 179.279 30.8505 178.912 30.7588C178.553 30.667 178.161 30.6212 177.736 30.6212C176.911 30.6212 176.264 30.8213 175.797 31.2216C175.339 31.6135 175.109 32.1514 175.109 32.8352C175.109 33.5106 175.297 34.0318 175.672 34.3987C176.056 34.7573 176.548 34.9366 177.148 34.9366C177.69 34.9366 178.216 34.8115 178.724 34.5614C179.233 34.3112 179.671 33.9568 180.038 33.4981L180.288 34.0485C179.804 34.7156 179.179 35.2327 178.412 35.5996C177.644 35.9582 176.827 36.1374 175.96 36.1374C174.918 36.1374 174.067 35.8789 173.408 35.3619C172.749 34.8365 172.42 34.1361 172.42 33.2605Z" fill="#242E3A"/>
  <path d="M105.31 27.6816L104.923 27.0562C105.565 26.1056 106.303 25.3676 107.137 24.8422C107.97 24.3085 108.879 24.0416 109.863 24.0416C110.839 24.0416 111.711 24.2918 112.478 24.7922C113.245 25.2925 113.845 25.9846 114.279 26.8686C114.721 27.7442 114.942 28.7532 114.942 29.8957C114.942 31.2049 114.683 32.339 114.166 33.298C113.658 34.257 112.966 34.995 112.09 35.512C111.223 36.029 110.251 36.2875 109.175 36.2875C108.2 36.2875 107.328 36.0499 106.561 35.5746C105.794 35.0992 105.177 34.4154 104.71 33.5231L105.298 32.9352C105.723 33.6691 106.228 34.232 106.811 34.6239C107.403 35.0075 108.041 35.1993 108.725 35.1993C109.384 35.1993 109.976 35.02 110.501 34.6614C111.027 34.2945 111.44 33.74 111.74 32.9978C112.048 32.2556 112.203 31.3258 112.203 30.2084C112.203 29.1326 112.057 28.2404 111.765 27.5315C111.473 26.8144 111.073 26.2765 110.564 25.9179C110.064 25.551 109.488 25.3676 108.838 25.3676C108.179 25.3676 107.549 25.5594 106.949 25.9429C106.357 26.3265 105.811 26.9061 105.31 27.6816Z" fill="#242E3A"/>
</svg>
